<svg width="792" height="693" viewBox="0 0 792 693" fill="none" xmlns="http://www.w3.org/2000/svg">
<path d="M850.587 -177.864C800.482 -327.864 687.635 -369.571 637.476 -371.675C403.215 -397.817 15.2217 -200.4 0.580475 61.9213C-14.0608 324.242 251.922 157.475 385.32 265.648C518.719 373.822 167 443 254 593C376.695 804.543 666.25 471.079 778.5 609C890.75 746.921 1058.01 711.864 987.239 515.349C916.473 318.834 1182.46 331.454 1236.14 209.759C1289.83 88.0633 1176.76 61.9213 1081.59 61.9213C986.426 61.9213 913.219 9.63742 850.587 -177.864Z" fill="url(#paint0_linear_4_15)"/>
<defs>
<linearGradient id="paint0_linear_4_15" x1="810.5" y1="-94.5001" x2="304.5" y2="606" gradientUnits="userSpaceOnUse">
<stop stop-color="#E29771"/>
<stop offset="1" stop-color="#FFE382"/>
</linearGradient>
</defs>
</svg>
